<svg width="53" height="49" viewBox="0 0 53 49" fill="none" xmlns="http://www.w3.org/2000/svg">
<path d="M1.3981 32.2477C1.3981 32.2477 -0.724402 32.6369 0.260972 34.2342C0.260972 34.2342 9.01442 48.5789 26.3145 48.5789C43.1194 48.0794 52.0158 34.2342 52.0158 34.2342C53.0012 32.6375 50.8787 32.2477 50.8787 32.2477C50.8787 32.2477 51.1648 31.4414 51.5679 30.5007C51.971 29.5599 50.493 28.8017 50.493 28.8017H49.1286C49.1286 28.8017 49.4628 27.992 49.5163 26.7825C49.5698 25.573 48.0195 25.3691 48.0195 25.3691C47.4406 23.5671 46.51 20.6159 46.2975 19.615C45.9839 18.1367 45.0881 17.1063 45.0881 17.1063C45.0881 17.1063 44.9538 14.2841 44.7746 11.1931C44.5954 8.10215 43.2517 3.21927 42.5799 1.06901C41.9081 -1.08125 40.5309 0.677204 40.5309 0.677204L32.8719 10.2524H19.4049L11.7459 0.677204C11.7459 0.677204 10.3687 -1.08125 9.6969 1.06901C9.02505 3.21927 7.68136 8.10215 7.5022 11.1931C7.32305 14.2841 7.18867 17.1063 7.18867 17.1063C7.18867 17.1063 6.29288 18.1367 5.97935 19.615C5.76744 20.6159 4.83621 23.5671 4.25729 25.3691C4.25729 25.3691 2.70703 25.573 2.76051 26.7825C2.81399 27.992 3.14824 28.8017 3.14824 28.8017H1.78382C1.78382 28.8017 0.305767 29.5599 0.708874 30.5007C1.11198 31.4414 1.3981 32.2477 1.3981 32.2477Z" fill="#6A82D9"/>
<path d="M40.7044 5.26813L38.6324 9.83742C38.6324 9.83742 38.3651 10.4425 38.9669 10.7113C39.5687 10.9801 40.8381 11.5852 41.4399 12.1896C42.0417 12.7947 42.6428 13.4667 42.8436 12.1896C43.0444 10.9126 41.908 5.60444 41.908 5.60444C41.908 5.60444 41.4252 3.67951 40.7051 5.26813H40.7044Z" fill="#FFF6E6"/>
<path d="M40.0546 7.00115L38.6143 9.97247C38.6143 9.97247 38.4288 10.3656 38.8464 10.5408C39.2646 10.7153 40.1471 11.1091 40.5653 11.5023C40.9836 11.8954 41.4018 12.3327 41.5408 11.5023C41.6805 10.6718 40.8905 7.21979 40.8905 7.21979C40.8905 7.21979 40.5547 5.96815 40.0539 7.00115H40.0546Z" fill="#DBCCB4"/>
<path d="M11.8353 5.26813L13.9074 9.83742C13.9074 9.83742 14.1747 10.4425 13.5729 10.7113C12.9711 10.9801 11.7017 11.5852 11.0999 12.1896C10.4981 12.7947 9.89698 13.4667 9.69616 12.1896C9.49534 10.9126 10.6317 5.60444 10.6317 5.60444C10.6317 5.60444 11.1145 3.67951 11.8347 5.26813H11.8353Z" fill="#FFF6E6"/>
<path d="M12.4555 6.98105L13.8147 9.9791C13.8147 9.9791 13.9902 10.3756 13.5952 10.5521C13.2009 10.7286 12.3677 11.1251 11.9727 11.5223C11.5784 11.9187 11.1834 12.36 11.0517 11.5223C10.9201 10.6845 11.6655 7.20169 11.6655 7.20169C11.6655 7.20169 11.982 5.93868 12.4548 6.98105H12.4555Z" fill="#DBCCB4"/>
<path d="M32.3921 47.8193C34.0252 47.2155 35.7933 46.5402 37.5136 45.5139C44.2058 41.5223 48.0998 35.1517 46.212 31.2838C44.3242 27.4166 37.3686 27.5169 30.6771 31.5085C29.4662 32.2306 28.0898 33.4528 27.0797 34.3013H23.8885C22.7554 33.295 21.47 32.3489 20.0603 31.5085C13.3681 27.5169 6.41328 27.4166 4.52544 31.2838C2.63761 35.1511 6.53229 41.5223 13.2238 45.5139C15.2054 46.696 17.2096 47.5365 19.0988 48.0339C19.0988 48.0339 21.7928 49 25.5675 49C29.3423 49 32.3914 47.8193 32.3914 47.8193H32.3921Z" fill="#395ACC"/>
<path d="M31.9333 47.225C33.4598 46.6607 35.1124 46.0295 36.7202 45.0702C42.9751 41.3395 46.6147 35.3852 44.8502 31.77C43.0858 28.1555 36.5847 28.2492 30.3305 31.98C29.1987 32.6549 27.9122 33.7973 26.9681 34.5903H23.9855C22.9264 33.6498 21.725 32.7655 20.4074 31.98C14.1525 28.2492 7.65212 28.1555 5.88764 31.77C4.12317 35.3846 7.76336 41.3395 14.0176 45.0702C15.8697 46.1751 17.743 46.9606 19.5087 47.4256C19.5087 47.4256 22.0267 48.3285 25.5548 48.3285C29.0828 48.3285 31.9327 47.225 31.9327 47.225H31.9333Z" fill="#FFF6E6"/>
<path d="M23.647 24.3864V32.625C23.647 33.9429 24.7095 35.0113 26.0202 35.0113C27.3309 35.0113 28.3935 33.9429 28.3935 32.625V24.3864C28.3935 23.0685 27.3309 22.0001 26.0202 22.0001C24.7095 22.0001 23.647 23.0685 23.647 24.3864Z" fill="#395ACC"/>
<path d="M26.9333 32.4899H24.7489C24.6086 32.4899 24.4782 32.5655 24.4084 32.6878L23.3165 34.59C23.2461 34.7124 23.2461 34.8628 23.3165 34.9852L24.4084 36.8874C24.4789 37.0097 24.6086 37.0853 24.7489 37.0853H26.9333C27.0736 37.0853 27.2039 37.0097 27.2737 36.8874L28.3656 34.9852C28.4361 34.8628 28.4361 34.7124 28.3656 34.59L27.2737 32.6878C27.2032 32.5655 27.0736 32.4899 26.9333 32.4899Z" fill="black"/>
<path d="M26.436 33.1813L25.2071 33.3177C25.0529 33.3351 24.9917 33.527 25.1067 33.6313L25.392 33.8894C25.6487 34.1214 26.0437 34.0993 26.2731 33.8399L26.5896 33.4815C26.6987 33.3578 26.5989 33.1639 26.436 33.182V33.1813Z" fill="#565656"/>
<path d="M35.8622 35.1757L35.1646 35.0413C35.166 35.0327 35.2119 34.7398 35.0124 34.5579C34.8448 34.4048 34.1499 34.2357 33.6013 34.1668L33.6891 33.4587C33.9165 33.4875 35.0715 33.6486 35.4891 34.0297C35.8861 34.3921 35.9101 34.921 35.8615 35.1764L35.8622 35.1757Z" fill="#DBCCB4"/>
<path d="M16.2163 35.1757C16.1678 34.9203 16.1917 34.3915 16.5887 34.0291C17.0063 33.648 18.1614 33.4868 18.3888 33.4581L18.4765 34.1661C17.9286 34.235 17.2331 34.4042 17.0655 34.5573C16.8667 34.7391 16.9125 35.038 16.9132 35.0407L16.2157 35.1751L16.2163 35.1757Z" fill="#DBCCB4"/>
<path d="M23.9907 40.3655H23.9814C20.2543 40.2558 16.9993 34.5773 16.8623 34.3359L17.4794 33.9829C17.5106 34.0384 20.6679 39.5444 23.9934 39.6514L25.6405 39.6146V37.6569H26.3507V40.3133L23.9907 40.3662V40.3655Z" fill="#DBCCB4"/>
<path d="M28.0894 40.3655H28.0801L25.7295 40.3127V37.6563H26.4397V39.614L28.0868 39.6507C31.4116 39.5431 34.5689 34.0377 34.6008 33.9822L35.2179 34.3353C35.0809 34.5773 31.8252 40.2552 28.0988 40.3648H28.0894V40.3655Z" fill="#DBCCB4"/>
<path d="M33.8017 15.0173H30.9165C30.3979 15.0173 29.9775 15.44 29.9775 15.9614V17.433C29.9775 17.9544 30.3979 18.3771 30.9165 18.3771H33.8017C34.3203 18.3771 34.7407 17.9544 34.7407 17.433V15.9614C34.7407 15.44 34.3203 15.0173 33.8017 15.0173Z" fill="#395ACC"/>
<path d="M20.6679 15.0173H17.7827C17.2641 15.0173 16.8438 15.44 16.8438 15.9614V17.433C16.8438 17.9544 17.2641 18.3771 17.7827 18.3771H20.6679C21.1865 18.3771 21.6069 17.9544 21.6069 17.433V15.9614C21.6069 15.44 21.1865 15.0173 20.6679 15.0173Z" fill="#395ACC"/>
<path d="M19.4878 32.8858C21.5731 32.8858 23.2635 30.6143 23.2635 27.8123C23.2635 25.0103 21.5731 22.7389 19.4878 22.7389C17.4026 22.7389 15.7122 25.0103 15.7122 27.8123C15.7122 30.6143 17.4026 32.8858 19.4878 32.8858Z" fill="white"/>
<path d="M19.4873 30.5797C20.7977 30.5797 21.8599 29.1207 21.8599 27.3209C21.8599 25.5211 20.7977 24.0621 19.4873 24.0621C18.177 24.0621 17.1147 25.5211 17.1147 27.3209C17.1147 29.1207 18.177 30.5797 19.4873 30.5797Z" fill="black"/>
<path d="M21.2137 26.9959C21.2137 27.6084 20.6698 28.4502 20.5621 28.1045C20.2947 27.248 19.9104 27.6084 19.9104 26.9959C19.9104 26.3835 20.2023 25.8874 20.5621 25.8874C20.9218 25.8874 21.2137 26.3835 21.2137 26.9959Z" fill="white"/>
<path d="M32.4375 33.077C34.5228 33.077 36.2132 30.7627 36.2132 27.9079C36.2132 25.0532 34.5228 22.7389 32.4375 22.7389C30.3523 22.7389 28.6619 25.0532 28.6619 27.9079C28.6619 30.7627 30.3523 33.077 32.4375 33.077Z" fill="white"/>
<path d="M32.4449 30.5797C33.7552 30.5797 34.8175 29.1207 34.8175 27.3209C34.8175 25.5211 33.7552 24.0621 32.4449 24.0621C31.1345 24.0621 30.0723 25.5211 30.0723 27.3209C30.0723 29.1207 31.1345 30.5797 32.4449 30.5797Z" fill="black"/>
<path d="M34.1715 26.9959C34.1715 27.6084 33.6276 28.4502 33.5198 28.1045C33.2525 27.248 32.8682 27.6084 32.8682 26.9959C32.8682 26.3835 33.1601 25.8874 33.5198 25.8874C33.8796 25.8874 34.1715 26.3835 34.1715 26.9959Z" fill="white"/>
</svg>
